<svg xmlns="http://www.w3.org/2000/svg" width="1200" height="700" viewBox="0 0 1200 700">
  <defs>
    <linearGradient id="g" x1="0" y1="0" x2="1" y2="1">
      <stop offset="0" stop-color="#5ef5c3" stop-opacity="0.18"/>
      <stop offset="1" stop-color="#4aa3ff" stop-opacity="0.22"/>
    </linearGradient>
  </defs>
  <rect width="1200" height="700" rx="34" fill="url(#g)"/>
  <rect x="60" y="70" width="1080" height="560" rx="28" fill="rgba(255,255,255,0.06)" stroke="rgba(255,255,255,0.10)"/>
  <rect x="92" y="110" width="350" height="22" rx="11" fill="rgba(255,255,255,0.16)"/>
  <rect x="92" y="160" width="520" height="16" rx="8" fill="rgba(255,255,255,0.10)"/>
  <rect x="92" y="190" width="480" height="16" rx="8" fill="rgba(255,255,255,0.10)"/>
  <rect x="92" y="220" width="440" height="16" rx="8" fill="rgba(255,255,255,0.10)"/>
  <g opacity="0.95">
    <rect x="92" y="280" width="330" height="160" rx="20" fill="rgba(255,255,255,0.06)" stroke="rgba(255,255,255,0.10)"/>
    <rect x="452" y="280" width="330" height="160" rx="20" fill="rgba(255,255,255,0.06)" stroke="rgba(255,255,255,0.10)"/>
    <rect x="812" y="280" width="328" height="160" rx="20" fill="rgba(255,255,255,0.06)" stroke="rgba(255,255,255,0.10)"/>
  </g>
  <g opacity="0.9">
    <rect x="92" y="470" width="1048" height="26" rx="13" fill="rgba(255,255,255,0.10)"/>
    <rect x="92" y="512" width="820" height="18" rx="9" fill="rgba(255,255,255,0.08)"/>
    <rect x="92" y="542" width="760" height="18" rx="9" fill="rgba(255,255,255,0.08)"/>
  </g>
  <text x="92" y="640" fill="rgba(232,238,252,0.85)" font-family="ui-sans-serif, system-ui" font-size="20" font-weight="700">
    Placeholder dashboard image — replace with real FPrimeAI screenshots
  </text>
</svg>
